HIERARCHY
ROOT Hips
{
	OFFSET 0.000000 100.481300 0.000000
	CHANNELS 6 Xposition Yposition Zposition Xrotation Yrotation Zrotation 
	JOINT Spine
	{
		OFFSET -0.279200 12.230698 -2.892100
		CHANNELS 3 Xrotation Yrotation Zrotation
		JOINT Spine1
		{
			OFFSET -0.232667 10.192268 -1.242267
			CHANNELS 3 Xrotation Yrotation Zrotation
			JOINT Spine1_split
			{
				OFFSET -0.232667 10.192268 -1.242267
				CHANNELS 3 Xrotation Yrotation Zrotation
				JOINT Spine2
				{
					OFFSET -0.232667 10.192268 -1.242267
					CHANNELS 3 Xrotation Yrotation Zrotation
					JOINT Neck
					{
						OFFSET -0.418800 17.814194 8.416900
						CHANNELS 3 Xrotation Yrotation Zrotation
						JOINT Head
						{
							OFFSET 0.000000 7.031097 3.806800
							CHANNELS 3 Xrotation Yrotation Zrotation
							JOINT HeadTop_End
							{
								OFFSET 0.000000 24.646606 12.978600
								CHANNELS 3 Xrotation Yrotation Zrotation
								End Site
								{
									OFFSET 0.000000 0.000000 0.000000
								}
							}
						}
					}
					JOINT LeftShoulder
					{
						OFFSET 8.476499 7.247704 -3.868750
						CHANNELS 3 Xrotation Yrotation Zrotation
						JOINT LeftShoulder_split
						{
							OFFSET 8.476499 7.247704 -3.868750
							CHANNELS 3 Xrotation Yrotation Zrotation
							JOINT LeftArm
							{
								OFFSET 9.308998 -2.777710 0.208600
								CHANNELS 3 Xrotation Yrotation Zrotation
								JOINT LeftForeArm
								{
									OFFSET 29.972298 0.000000 0.000000
									CHANNELS 3 Xrotation Yrotation Zrotation
									JOINT LeftHand
									{
										OFFSET 26.026505 0.000000 0.000000
										CHANNELS 3 Xrotation Yrotation Zrotation
										JOINT LeftHandThumb1
										{
											OFFSET 12.240501 -7.147949 9.207150
											CHANNELS 3 Xrotation Yrotation Zrotation
											JOINT LeftHandThumb2
											{
												OFFSET 4.138618 -2.389435 2.389433
												CHANNELS 3 Xrotation Yrotation Zrotation
												JOINT LeftHandThumb3
												{
													OFFSET 2.726913 -1.574387 1.574386
													CHANNELS 3 Xrotation Yrotation Zrotation
													JOINT LeftHandThumb4
													{
														OFFSET 3.941010 -2.275345 2.275342
														CHANNELS 3 Xrotation Yrotation Zrotation
														End Site
														{
															OFFSET 0.000000 0.000000 0.000000
														}
													}
												}
											}
										}
										JOINT LeftHandIndex1
										{
											OFFSET 24.424698 -1.985611 5.953459
											CHANNELS 3 Xrotation Yrotation Zrotation
											JOINT LeftHandIndex2
											{
												OFFSET 6.426697 0.000000 0.000000
												CHANNELS 3 Xrotation Yrotation Zrotation
												JOINT LeftHandIndex3
												{
													OFFSET 5.337898 0.000000 0.000000
													CHANNELS 3 Xrotation Yrotation Zrotation
													JOINT LeftHandIndex4
													{
														OFFSET 4.409401 0.000000 0.000000
														CHANNELS 3 Xrotation Yrotation Zrotation
														End Site
														{
															OFFSET 0.000000 0.000000 0.000000
														}
													}
												}
											}
										}
										JOINT LeftHandMiddle1
										{
											OFFSET 23.810104 0.000000 0.000000
											CHANNELS 3 Xrotation Yrotation Zrotation
											JOINT LeftHandMiddle2
											{
												OFFSET 7.176498 0.000000 0.000000
												CHANNELS 3 Xrotation Yrotation Zrotation
												JOINT LeftHandMiddle3
												{
													OFFSET 6.774902 0.000000 0.000000
													CHANNELS 3 Xrotation Yrotation Zrotation
													JOINT LeftHandMiddle4
													{
														OFFSET 5.403328 0.000000 0.000000
														CHANNELS 3 Xrotation Yrotation Zrotation
														End Site
														{
															OFFSET 0.000000 0.000000 0.000000
														}
													}
												}
											}
										}
										JOINT LeftHandRing1
										{
											OFFSET 22.908401 -0.839279 -6.020567
											CHANNELS 3 Xrotation Yrotation Zrotation
											JOINT LeftHandRing2
											{
												OFFSET 6.337502 0.000000 0.000000
												CHANNELS 3 Xrotation Yrotation Zrotation
												JOINT LeftHandRing3
												{
													OFFSET 5.779297 0.000000 0.000000
													CHANNELS 3 Xrotation Yrotation Zrotation
													JOINT LeftHandRing4
													{
														OFFSET 4.965698 0.000000 0.000000
														CHANNELS 3 Xrotation Yrotation Zrotation
														End Site
														{
															OFFSET 0.000000 0.000000 0.000000
														}
													}
												}
											}
										}
										JOINT LeftHandPinky1
										{
											OFFSET 20.037003 -1.530319 -10.950146
											CHANNELS 3 Xrotation Yrotation Zrotation
											JOINT LeftHandPinky2
											{
												OFFSET 5.254700 0.000000 0.000000
												CHANNELS 3 Xrotation Yrotation Zrotation
												JOINT LeftHandPinky3
												{
													OFFSET 4.810204 0.000000 0.000000
													CHANNELS 3 Xrotation Yrotation Zrotation
													JOINT LeftHandPinky4
													{
														OFFSET 3.647202 0.000000 0.000000
														CHANNELS 3 Xrotation Yrotation Zrotation
														End Site
														{
															OFFSET 0.000000 0.000000 0.000000
														}
													}
												}
											}
										}
									}
								}
							}
						}
					}
					JOINT RightShoulder
					{
						OFFSET -7.570500 7.247704 -3.868750
						CHANNELS 3 Xrotation Yrotation Zrotation
						JOINT RightShoulder_split
						{
							OFFSET -7.570500 7.247704 -3.868750
							CHANNELS 3 Xrotation Yrotation Zrotation
							JOINT RightArm
							{
								OFFSET -9.308998 -2.777710 0.208500
								CHANNELS 3 Xrotation Yrotation Zrotation
								JOINT RightForeArm
								{
									OFFSET -29.972300 0.000000 0.000000
									CHANNELS 3 Xrotation Yrotation Zrotation
									JOINT RightHand
									{
										OFFSET -26.026505 0.000000 0.000000
										CHANNELS 3 Xrotation Yrotation Zrotation
										JOINT RightHandThumb1
										{
											OFFSET -12.240601 -7.148026 9.207092
											CHANNELS 3 Xrotation Yrotation Zrotation
											JOINT RightHandThumb2
											{
												OFFSET -4.138618 -2.389435 2.389433
												CHANNELS 3 Xrotation Yrotation Zrotation
												JOINT RightHandThumb3
												{
													OFFSET -2.726974 -1.574417 1.574421
													CHANNELS 3 Xrotation Yrotation Zrotation
													JOINT RightHandThumb4
													{
														OFFSET -3.941010 -2.275345 2.275343
														CHANNELS 3 Xrotation Yrotation Zrotation
														End Site
														{
															OFFSET 0.000000 0.000000 0.000000
														}
													}
												}
											}
										}
										JOINT RightHandIndex1
										{
											OFFSET -24.424698 -1.985657 5.953444
											CHANNELS 3 Xrotation Yrotation Zrotation
											JOINT RightHandIndex2
											{
												OFFSET -6.426697 0.000000 0.000000
												CHANNELS 3 Xrotation Yrotation Zrotation
												JOINT RightHandIndex3
												{
													OFFSET -5.337898 0.000000 0.000000
													CHANNELS 3 Xrotation Yrotation Zrotation
													JOINT RightHandIndex4
													{
														OFFSET -4.409401 0.000000 0.000000
														CHANNELS 3 Xrotation Yrotation Zrotation
														End Site
														{
															OFFSET 0.000000 0.000000 0.000000
														}
													}
												}
											}
										}
										JOINT RightHandMiddle1
										{
											OFFSET -23.810097 0.000000 0.000000
											CHANNELS 3 Xrotation Yrotation Zrotation
											JOINT RightHandMiddle2
											{
												OFFSET -7.176498 0.000000 0.000000
												CHANNELS 3 Xrotation Yrotation Zrotation
												JOINT RightHandMiddle3
												{
													OFFSET -6.774902 0.000000 0.000000
													CHANNELS 3 Xrotation Yrotation Zrotation
													JOINT RightHandMiddle4
													{
														OFFSET -5.403328 0.000000 0.000000
														CHANNELS 3 Xrotation Yrotation Zrotation
														End Site
														{
															OFFSET 0.000000 0.000000 0.000000
														}
													}
												}
											}
										}
										JOINT RightHandRing1
										{
											OFFSET -22.908302 -0.839325 -6.020576
											CHANNELS 3 Xrotation Yrotation Zrotation
											JOINT RightHandRing2
											{
												OFFSET -6.337502 0.000000 0.000000
												CHANNELS 3 Xrotation Yrotation Zrotation
												JOINT RightHandRing3
												{
													OFFSET -5.779297 0.000000 0.000000
													CHANNELS 3 Xrotation Yrotation Zrotation
													JOINT RightHandRing4
													{
														OFFSET -4.965698 0.000000 0.000000
														CHANNELS 3 Xrotation Yrotation Zrotation
														End Site
														{
															OFFSET 0.000000 0.000000 0.000000
														}
													}
												}
											}
										}
										JOINT RightHandPinky1
										{
											OFFSET -20.037003 -1.530334 -10.950259
											CHANNELS 3 Xrotation Yrotation Zrotation
											JOINT RightHandPinky2
											{
												OFFSET -5.254700 0.000000 0.000000
												CHANNELS 3 Xrotation Yrotation Zrotation
												JOINT RightHandPinky3
												{
													OFFSET -4.810204 0.000000 0.000000
													CHANNELS 3 Xrotation Yrotation Zrotation
													JOINT RightHandPinky4
													{
														OFFSET -3.647202 0.000000 0.000000
														CHANNELS 3 Xrotation Yrotation Zrotation
														End Site
														{
															OFFSET 0.000000 0.000000 0.000000
														}
													}
												}
											}
										}
									}
								}
							}
						}
					}
				}
			}
		}
	}
	JOINT LeftUpLeg
	{
		OFFSET 15.427100 -6.655098 0.678600
		CHANNELS 3 Xrotation Yrotation Zrotation
		JOINT LeftLeg
		{
			OFFSET 4.081073 -39.591068 13.024000
			CHANNELS 3 Xrotation Yrotation Zrotation
			JOINT LeftFoot
			{
				OFFSET -4.081074 -37.707932 -15.979700
				CHANNELS 3 Xrotation Yrotation Zrotation
				JOINT LeftToeBase
				{
					OFFSET 5.346399 -15.068900 20.645000
					CHANNELS 3 Xrotation Yrotation Zrotation
					JOINT LeftToe_End
					{
						OFFSET 2.754700 0.931300 11.300900
						CHANNELS 3 Xrotation Yrotation Zrotation
						End Site
						{
							OFFSET 0.000000 0.000000 0.000000
						}
					}
				}
			}
		}
	}
	JOINT RightUpLeg
	{
		OFFSET -15.569500 -6.655098 0.678600
		CHANNELS 3 Xrotation Yrotation Zrotation
		JOINT RightLeg
		{
			OFFSET -4.081825 -39.591045 13.023800
			CHANNELS 3 Xrotation Yrotation Zrotation
			JOINT RightFoot
			{
				OFFSET 4.081824 -37.707954 -15.979600
				CHANNELS 3 Xrotation Yrotation Zrotation
				JOINT RightToeBase
				{
					OFFSET -5.346400 -15.068900 20.645000
					CHANNELS 3 Xrotation Yrotation Zrotation
					JOINT RightToe_End
					{
						OFFSET -2.754700 0.931300 11.300900
						CHANNELS 3 Xrotation Yrotation Zrotation
						End Site
						{
							OFFSET 0.000000 0.000000 0.000000
						}
					}
				}
			}
		}
	}
}
MOTION
Frames: 4
Frame Time: 0.016667
1.211835 85.342400 -0.729106 -6.107882 -43.249362 -4.104280 5.829515 4.866484 -1.192869 11.836539 9.037614 -3.083967 0.000000 0.000000 0.000000 11.836542 9.037614 -3.083968 -9.907370 -1.416032 0.452970 -0.529821 20.570691 -0.772811 0.000000 -0.000000 0.000000 1.396582 -0.734464 -7.859326 0.000000 0.000000 0.000000 -14.236639 2.407733 -63.256793 9.875225 -47.538380 5.912055 16.118546 0.922166 18.828767 9.163604 4.814096 -5.499027 -0.335367 0.032564 0.783685 0.000005 -0.000007 -0.000006 0.000001 0.000003 -0.000001 -0.902017 -6.980957 -3.808416 0.033415 0.804250 -16.418972 0.000001 0.000001 -0.000003 0.000001 0.000001 0.000001 1.947856 9.683074 -14.539791 -0.456436 -1.565426 -21.881042 -0.000001 0.000007 0.000009 0.000002 -0.000001 0.000000 2.605865 14.896829 -31.345254 -0.576840 -2.712402 -32.011536 0.000004 -0.000000 0.000002 0.000002 -0.000000 -0.000001 4.170563 18.495018 -34.987330 -0.706802 -5.788620 -39.372919 -0.000002 -0.000001 0.000000 -0.000003 -0.000003 -0.000001 1.410915 9.461494 9.792762 0.000000 0.000000 0.000000 1.220054 -24.270695 60.532838 -6.660678 41.858428 8.043881 6.225195 12.322287 11.673271 -8.898172 -4.908932 -0.379257 7.904849 -19.192476 -2.856861 -0.000001 -0.000003 -0.000008 0.000001 -0.000001 -0.000001 -1.085501 -1.215486 4.525245 0.142011 -1.115594 16.942612 -0.000000 -0.000000 -0.000000 -0.000002 -0.000002 -0.000001 -0.668341 -2.904956 12.731526 -0.667286 1.816584 30.578764 -0.000003 -0.000003 0.000017 -0.000000 -0.000002 -0.000000 2.423623 -7.404556 21.763276 -0.987212 3.762995 37.431206 0.000001 0.000001 -0.000002 0.000001 0.000001 -0.000002 3.480594 -10.053108 24.322316 -1.457039 7.871391 41.091989 -0.000001 0.000003 0.000005 0.000000 0.000002 -0.000002 -29.866279 5.161990 13.477539 32.766077 -12.903651 0.004109 -0.233615 0.070721 -8.593840 -2.319086 -3.216991 0.802951 -0.000000 -0.000002 -0.000000 1.367680 -13.647068 -19.020528 31.299683 -6.214642 0.764541 -23.464087 -7.009651 20.453826 -1.785018 -0.356683 0.333184 0.000000 0.000001 0.000000 
1.502529 84.799538 -1.006810 -4.965910 -44.032502 -3.316730 5.930489 4.782398 -1.185738 12.025228 8.854455 -2.993141 0.000000 0.000000 0.000000 12.025229 8.854469 -2.993145 -10.777262 -0.439173 0.984891 -1.745467 21.729757 -1.808205 0.000000 -0.000000 0.000000 0.965644 -1.032585 -7.966036 0.000000 0.000000 0.000000 -15.103292 0.865222 -62.925098 10.783025 -44.898187 6.185693 16.918918 -0.292565 19.627052 9.349428 4.758711 -5.687990 -0.198644 0.325450 0.830094 0.000007 -0.000008 -0.000009 -0.000001 0.000001 0.000000 -1.019736 -6.725082 -5.312738 -0.024108 0.621138 -18.002345 -0.000000 0.000001 -0.000003 0.000002 0.000000 -0.000000 2.038156 9.433268 -15.807838 -0.518306 -1.712267 -23.341903 -0.000002 0.000006 0.000006 -0.000000 0.000000 -0.000001 2.629693 14.587927 -32.393791 -0.622576 -2.782457 -33.387023 0.000007 -0.000001 0.000002 0.000001 -0.000000 -0.000001 4.065083 18.024521 -36.188822 -0.726384 -5.810848 -40.750398 0.000004 -0.000001 0.000003 -0.000000 -0.000002 0.000001 0.953482 9.999499 9.272303 0.000000 0.000000 0.000000 0.949936 -23.054622 60.574550 -5.823122 42.180834 7.329629 6.263654 12.051180 10.451384 -8.629378 -4.893360 -0.125866 7.913502 -19.223977 -2.860414 -0.000000 -0.000004 -0.000008 -0.000001 -0.000000 -0.000001 -1.071999 -1.312172 5.663827 0.107971 -1.008043 18.067636 0.000001 0.000001 -0.000000 0.000001 -0.000000 -0.000000 -0.667782 -2.883313 13.714701 -0.713123 1.892769 31.570999 -0.000002 -0.000003 0.000010 -0.000001 0.000000 0.000000 2.379251 -7.310034 22.637158 -1.035017 3.824182 38.329485 -0.000001 0.000000 -0.000002 -0.000000 0.000000 -0.000003 3.381063 -9.859283 25.095568 -1.498521 7.918858 41.906482 0.000001 -0.000002 0.000007 0.000001 0.000000 -0.000002 -31.504599 5.154877 13.840640 33.781849 -12.581132 0.030630 -0.429396 0.161693 -8.759652 -2.223148 -3.083349 0.769144 0.000000 0.000001 0.000000 -0.321116 -11.251027 -19.082316 33.181523 -7.625530 0.642046 -23.870553 -7.108445 21.280431 -1.785004 -0.356747 0.333188 0.000000 0.000000 0.000000 
1.972127 83.997322 -1.464030 -3.057929 -44.812250 -1.732869 6.039574 4.632455 -1.261581 12.224174 8.528414 -2.981041 0.000000 0.000000 0.000000 12.224174 8.528397 -2.981035 -12.706016 0.665368 1.229651 -2.359375 22.874645 -2.642890 0.000000 0.000000 0.000000 0.265572 -1.356439 -8.721382 0.000000 0.000000 0.000000 -15.849130 -0.272482 -61.599113 11.914445 -42.970660 5.909666 17.937608 -1.587089 20.477086 9.860299 4.600695 -6.210157 0.178197 1.135732 0.954705 0.000006 -0.000005 -0.000003 0.000000 0.000000 0.000002 -1.259479 -6.014155 -9.465732 -0.209150 0.123942 -22.380652 0.000002 -0.000003 0.000000 -0.000001 -0.000000 0.000002 2.249217 8.742725 -19.308584 -0.708679 -2.109444 -27.382302 -0.000004 0.000007 0.000008 0.000005 0.000001 -0.000001 2.646782 13.741506 -35.282650 -0.757570 -2.970179 -37.190493 0.000007 0.000000 0.000001 -0.000002 0.000000 0.000001 3.684838 16.759099 -39.492659 -0.783264 -5.869778 -44.559095 0.000003 0.000003 -0.000002 -0.000002 -0.000002 -0.000000 0.311094 10.730825 8.924909 0.000000 0.000000 0.000000 0.830486 -21.973979 60.244563 -4.994663 43.080008 7.063721 6.221347 11.810342 8.625582 -7.878572 -4.840434 0.584298 7.937783 -19.312203 -2.870373 -0.000000 -0.000005 -0.000009 0.000000 -0.000001 -0.000001 -1.004369 -1.581459 8.851892 0.001587 -0.710713 21.217824 0.000001 0.000003 -0.000001 -0.000001 0.000003 -0.000001 -0.662318 -2.824121 16.467579 -0.848393 2.101713 34.349783 -0.000002 -0.000003 0.000013 -0.000000 0.000002 -0.000001 2.247671 -7.051101 25.083677 -1.173867 3.991416 40.845143 0.000000 -0.000002 0.000001 0.000000 -0.000000 0.000001 3.080874 -9.327122 27.258571 -1.618329 8.048610 44.187796 0.000000 -0.000000 0.000006 0.000001 0.000001 0.000002 -34.034293 5.024517 13.964808 35.055174 -12.120257 0.072559 -0.454509 0.266149 -8.996488 -2.120714 -2.940643 0.733047 0.000000 -0.000000 -0.000000 -3.178195 -8.560562 -19.488297 35.993813 -8.928311 0.536255 -24.456336 -7.210832 22.135820 -1.954007 -0.510392 0.392328 0.000000 0.000000 0.000000 
2.520700 83.062546 -2.001250 -0.809139 -45.583846 0.181244 6.171990 4.447790 -1.382241 12.470200 8.138654 -3.034278 0.000000 0.000000 0.000000 12.470205 8.138642 -3.034275 -14.888607 1.797579 1.647216 -2.987669 24.094361 -3.539503 0.000002 -0.000000 0.000000 -0.375965 -1.611367 -9.419203 0.000000 0.000000 0.000000 -16.940404 -1.632605 -60.270436 12.892800 -40.769047 5.492818 19.195902 -3.354585 21.651908 10.623833 4.348439 -6.998075 0.744556 2.361274 1.132682 0.000007 -0.000008 -0.000005 0.000001 0.000000 0.000001 -1.386178 -4.956160 -15.725923 -0.554568 -0.599283 -28.997961 0.000001 0.000002 -0.000002 0.000000 0.000001 -0.000000 2.463026 7.707547 -24.585467 -1.048231 -2.681544 -33.490494 -0.000001 0.000005 0.000008 0.000001 0.000001 -0.000000 2.540721 12.492713 -39.622535 -0.984462 -3.235777 -42.938305 0.000003 -0.000001 -0.000002 0.000000 0.000003 0.000002 2.877035 14.964191 -44.444471 -0.876371 -5.951376 -50.313417 0.000002 -0.000001 0.000001 -0.000000 0.000000 -0.000002 -0.442261 11.779068 8.775495 0.000000 0.000000 0.000000 0.563405 -20.903032 59.747927 -4.165702 43.767774 6.786854 6.490523 12.058531 6.153599 -6.731237 -4.732398 1.676337 7.975065 -19.447666 -2.885678 -0.000001 -0.000003 -0.000007 -0.000000 -0.000002 -0.000001 -0.815432 -1.983360 13.748244 -0.192959 -0.266685 26.056465 0.000000 0.000001 -0.000000 -0.000000 0.000001 -0.000000 -0.642468 -2.735975 20.695279 -1.075435 2.409186 38.618976 -0.000003 -0.000003 0.000013 -0.000000 0.000000 -0.000001 2.025490 -6.670638 28.840235 -1.401014 4.235904 44.710343 0.000000 -0.000000 -0.000001 -0.000001 -0.000000 -0.000001 2.559857 -8.543089 30.575311 -1.812414 8.238336 47.693206 -0.000002 -0.000000 0.000004 0.000001 0.000000 -0.000003 -36.931004 4.777214 14.063892 36.462135 -11.567549 0.113081 -0.417908 0.394417 -9.306411 -2.012650 -2.790114 0.694960 0.000000 0.000000 0.000000 -6.683227 -6.392691 -20.092665 39.010356 -9.531719 0.524823 -25.047014 -7.171308 22.738238 -2.113666 -0.667537 0.422014 0.000000 0.000001 0.000000 
